<mxfile host="app.diagrams.net" modified="2024-03-21T04:51:40.802Z" agent="Mozilla/5.0 (Windows NT 10.0; Win64; x64) AppleWebKit/537.36 (KHTML, like Gecko) Chrome/122.0.0.0 Safari/537.36 Edg/122.0.0.0" version="24.0.7" etag="6LF9ZIL5Ficq1tn0aEIt" type="github">
  <diagram name="第 1 页" id="pjOkcReL81XWh3SlLAwN">
    <mxGraphModel>
      <root>
        <mxCell id="0" />
        <mxCell id="1" parent="0" />
      </root>
    </mxGraphModel>
  </diagram>
</mxfile>
